<?xml version="1.0" encoding="utf-8"?><!-- Uploaded to: SVG Repo, www.svgrepo.com, Generator: SVG Repo Mixer Tools -->
<svg width="24px" height="24px" viewBox="0 0 24 24" fill="none" xmlns="http://www.w3.org/2000/svg">

    <!--width="24px" height="24px" viewBox="0 0 24 24" fill="none"-->
    <g id="deleteIcon">
        <path d="M10 12V17" stroke="currentColor" stroke-width="2" stroke-linecap="round" stroke-linejoin="round"/>
        <path d="M14 12V17" stroke="currentColor" stroke-width="2" stroke-linecap="round" stroke-linejoin="round"/>
        <path d="M4 7H20" stroke="currentColor" stroke-width="2" stroke-linecap="round" stroke-linejoin="round"/>
        <path d="M6 10V18C6 19.6569 7.34315 21 9 21H15C16.6569 21 18 19.6569 18 18V10" stroke="currentColor"
              stroke-width="2" stroke-linecap="round" stroke-linejoin="round"/>
        <path d="M9 5C9 3.89543 9.89543 3 11 3H13C14.1046 3 15 3.89543 15 5V7H9V5Z" stroke="currentColor"
              stroke-width="2" stroke-linecap="round" stroke-linejoin="round"/>
    </g>

    <!--width="24px" height="24px" viewBox="0 0 192 192" fill="none"-->
    <g id="changeIcon">
        <path d="m104.175 90.97-4.252 38.384 38.383-4.252L247.923 15.427V2.497L226.78-18.646h-12.93zm98.164-96.96 31.671 31.67"
              class="cls-1"
              style="fill:none;fill-opacity:1;fill-rule:nonzero;stroke:currentColor;stroke-width:15;stroke-linecap:round;stroke-linejoin:round;stroke-dasharray:none;stroke-opacity:1"
              transform="translate(-77.923 40.646)"/>
        <path d="m195.656 33.271-52.882 52.882"
              style="fill:none;fill-opacity:1;fill-rule:nonzero;stroke:currentColor;stroke-width:12;stroke-linecap:round;stroke-linejoin:round;stroke-miterlimit:5;stroke-dasharray:none;stroke-opacity:1"
              transform="translate(-77.923 40.646)"/>
    </g>

    <!--width="800px" height="800px" viewBox="-4.5 0 19 19" fill="none"-->
    <g id="chevronRight">
        <path d="M1.6 17.262a1.03 1.03 0 0 1-.728-1.757l6.073-6.073L.872 3.36a1.03 1.03 0 0 1 1.455-1.455l6.8 6.8a1.03 1.03 0 0 1 0 1.456l-6.8 6.8a1.025 1.025 0 0 1-.727.302z"/>
    </g>

</svg>